<?xml version="1.0" encoding="utf-8"?>
<!-- Generator: Adobe Illustrator 28.4.1, SVG Export Plug-In . SVG Version: 6.00 Build 0)  -->
<svg version="1.1" id="图层_1" xmlns="http://www.w3.org/2000/svg" xmlns:xlink="http://www.w3.org/1999/xlink" x="0px" y="0px"
	 viewBox="0 0 12 12" style="enable-background:new 0 0 12 12;" xml:space="preserve">
<path d="M-56.7-583.7c-14.2-18.5-32.8-33.2-54.2-42.7c0-36.8-14.5-72.1-40.5-98.1c-25.7-26.8-61-42.2-98.1-42.7h-165.5
	c-5.5-0.1-10.9-2.2-14.9-6l-90.5-90.5c-20-20.1-47.1-31.5-75.5-31.6h-165.5c-37,0.3-72.3,15.7-97.7,42.7
	c-27,25.4-42.4,60.7-42.7,97.7v128c-21.2,9.6-39.6,24.2-53.8,42.7c-22,29.1-31.3,65.9-26,102l36.7,256c4.5,33.1,20.9,63.4,46.1,85.3
	c25.3,21.8,57.5,33.7,90.9,33.7h601.6c33.4,0,65.6-11.9,90.9-33.7c25.2-22,41.7-52.2,46.5-85.3l36.7-256
	C-26.9-517.9-35.7-554.3-56.7-583.7L-56.7-583.7z M-814.9-757.3c0-14.1,5.7-27.7,15.8-37.5c9.9-10.1,23.4-15.8,37.5-15.8h165.5
	c5.6,0.1,11,2.4,14.9,6.4l90.9,90.5c19.9,20,46.9,31.2,75.1,31.1h165.5c14.2,0.2,27.8,5.9,38,15.8c7.3,7.3,12.4,16.7,14.5,26.9
	h-617.8V-757.3z M-151.9-237.7c-1.7,12.8-8.1,24.4-17.9,32.9c-9.8,8.2-22.2,12.7-35,12.8h-601.6c-12.8-0.1-25.2-4.6-35-12.8
	c-9.5-8.5-15.7-20.2-17.5-32.9l-36.7-256c-4.1-28.7,15.4-55.4,43.9-60.2h690.3c13.5,2.3,25.6,9.8,33.7,20.9
	c8.4,11.2,12.1,25.3,10.2,39.3L-151.9-237.7L-151.9-237.7z"/>
</svg>
