<svg width="108" height="40" viewBox="0 0 108 40">
    <path  d="M17.1066 1.67051C18.1607 1.06194 18.6877 0.75765 19.248 0.63855C19.7438 0.53317 20.2562 0.53317 20.752 0.63855C21.3123 0.75765 21.8393 1.06194 22.8934 1.67051L34.4271 8.32949C35.4812 8.93806 36.0082 9.24235 36.3915 9.66805C36.7307 10.0447 36.9869 10.4885 37.1435 10.9705C37.3205 11.5153 37.3205 12.1239 37.3205 13.341V26.659C37.3205 27.8761 37.3205 28.4847 37.1435 29.0295C36.9869 29.5115 36.7307 29.9553 36.3915 30.3319C36.0082 30.7577 35.4812 31.0619 34.4271 31.6705L22.8934 38.3295C21.8393 38.9381 21.3123 39.2424 20.752 39.3615C20.2562 39.4668 19.7438 39.4668 19.248 39.3615C18.6877 39.2424 18.1607 38.9381 17.1066 38.3295L5.5729 31.6705C4.51882 31.0619 3.99178 30.7577 3.60848 30.3319C3.26933 29.9553 3.01313 29.5115 2.85651 29.0295C2.67949 28.4847 2.67949 27.8761 2.67949 26.659V13.341C2.67949 12.1239 2.67949 11.5153 2.85651 10.9705C3.01313 10.4885 3.26933 10.0447 3.60848 9.66805C3.99178 9.24235 4.51882 8.93806 5.5729 8.32949L17.1066 1.67051Z"
          fill="#009933"></path>
    <g>
        <path d="M28.7714 23.687C28.6478 23.6955 28.5226 23.6992 28.3985 23.6992C28.357 23.6992 28.3154 23.6992 28.2744 23.6992C28.3506 23.403 28.4041 23.1013 28.4342 22.7969C28.4534 22.6003 28.4635 22.4011 28.4635 22.1992C28.4636 21.9737 28.4509 21.7484 28.4257 21.5243C27.8408 21.8145 27.2122 22.0067 26.565 22.0932C26.385 22.1177 26.2024 22.1337 26.0174 22.1411C26.0763 21.8483 26.113 21.5515 26.1271 21.2532C26.1319 21.1541 26.1346 21.0545 26.1346 20.9543C26.135 20.5258 26.0896 20.0985 25.9993 19.6796C25.5414 19.9497 25.0495 20.1573 24.5366 20.297C24.3512 20.3474 24.1624 20.3891 23.9703 20.4222L23.9655 20.4158C24.0214 20.1362 24.057 19.853 24.072 19.5683C24.0784 19.4617 24.0811 19.3552 24.0811 19.2434C24.0812 18.8811 24.0486 18.5195 23.9836 18.1631C23.3519 18.8257 22.592 19.353 21.7502 19.7129C20.9084 20.0728 20.0022 20.2577 19.0867 20.2565C18.0057 20.2582 16.9402 19.9999 15.9801 19.5033C16.4169 19.3339 16.8324 19.1138 17.218 18.8476C16.1939 18.3557 15.3295 17.5844 14.7246 16.6226C14.1198 15.6608 13.799 14.5477 13.7993 13.4115C13.7991 13.0475 13.8319 12.6841 13.8973 12.3259C13.9615 11.9709 14.0579 11.6225 14.1855 11.2851C14.3111 10.9522 14.4664 10.6313 14.6494 10.3262C14.8567 9.97826 15.0987 9.65219 15.3718 9.35303C14.4499 9.77217 13.5865 10.3094 12.8032 10.9511C10.8182 12.5732 9.42202 14.8033 8.82987 17.2975C8.62059 18.1817 8.5153 19.0874 8.51613 19.996C8.51298 21.9524 9.00343 23.878 9.94211 25.5945C10.0057 25.0307 10.1492 24.4788 10.3683 23.9555C11.0755 25.6644 12.1965 27.1707 13.6304 28.3389C15.0643 29.507 16.7661 30.3004 18.5828 30.6475C18.2706 30.2412 18.012 29.7963 17.8136 29.3238C18.7807 29.6376 19.7881 29.8096 20.8046 29.8347C20.8946 29.8347 20.9852 29.8379 21.0757 29.8379C22.6905 29.8403 24.2841 29.4707 25.733 28.7576C25.4917 28.6215 25.2603 28.4686 25.0405 28.3C26.6495 27.6835 28.0731 26.6638 29.1746 25.3388C29.6852 24.7254 30.1206 24.0532 30.4717 23.3365C29.925 23.5353 29.3522 23.6534 28.7714 23.687Z"
              fill="white"></path>
        <path d="M31.4604 18.1545C31.4019 17.3894 31.2555 16.6335 31.0241 15.9018C30.9321 16.1499 30.8154 16.3882 30.6758 16.613C30.4951 15.4179 30.0759 14.2714 29.4432 13.2417C28.8105 12.2119 27.9772 11.3199 26.9928 10.6187C26.3096 10.13 25.5612 9.73986 24.7694 9.45956C24.6628 9.42157 24.5551 9.38605 24.446 9.35303C25.1926 10.3164 25.6639 11.4643 25.8097 12.6743C25.815 12.7164 25.8198 12.7585 25.8241 12.8011C25.8243 12.8043 25.8243 12.8075 25.8241 12.8107C25.8283 12.8544 25.8326 12.898 25.8358 12.9422V12.962V12.9652C25.8395 13.0088 25.8422 13.0525 25.8449 13.0962C25.8475 13.1399 25.8497 13.1841 25.8513 13.2278C25.8513 13.2587 25.8513 13.2901 25.8545 13.321C25.8542 13.3259 25.8542 13.3309 25.8545 13.3359C25.8545 13.3545 25.8545 13.3737 25.8545 13.3924C25.8545 13.4259 25.8545 13.46 25.8545 13.4936C25.8564 14.8765 25.4332 16.2266 24.6421 17.3608C24.7291 17.7726 24.773 18.1923 24.7731 18.6132C24.7733 18.8971 24.7533 19.1807 24.7134 19.4617C25.0966 19.3711 25.4697 19.2425 25.8273 19.0777C26.0929 18.9562 26.3491 18.8152 26.5938 18.6558C26.6439 18.83 26.6865 19.0074 26.7201 19.1885C26.7916 19.563 26.8272 19.9434 26.8266 20.3247C26.8268 20.6278 26.8042 20.9305 26.7589 21.2302C27.2882 21.1753 27.8077 21.0499 28.3037 20.8574C28.564 20.7565 28.8168 20.6373 29.0601 20.5005C29.0967 20.7043 29.1226 20.9098 29.1379 21.1163C29.1493 21.2661 29.155 21.4174 29.155 21.5701C29.1552 21.9875 29.1122 22.4038 29.0266 22.8123C29.6498 22.7867 30.2652 22.6638 30.8505 22.448C31.2703 21.3244 31.4846 20.1344 31.4833 18.9349C31.4879 18.6718 31.4803 18.4116 31.4604 18.1545Z"
              fill="white"></path>
    </g>
</svg>